<?xml version="1.0" encoding="UTF-8"?>
<!-- Created with Inkscape (http://www.inkscape.org/) -->
<svg width="188.98" height="188.98" version="1.1" viewBox="0 0 188.98 188.98" xml:space="preserve" xmlns="http://www.w3.org/2000/svg"><defs><clipPath id="clipPath36"><path d="M 0,141.732 H 141.732 V 0 H 0 Z"/></clipPath></defs><g transform="matrix(1.3333 0 0 -1.3333 0 188.98)"><g transform="translate(111.14 105.34)"><path d="m0 0h-80.551l7.548-81.885 32.728-9.279 32.715 9.279z" fill="#e6a329"/></g><g transform="translate(70.866 98.666)"><path d="m0 0v-77.559l26.502 7.513 6.454 70.046z" fill="#f1bf22"/></g><g transform="translate(91.951 88.618)"><path d="m0 0h-40.763l-2.833-30.66 0.06 0.192h34.626l-1.13-12.969-11.045-3.184-11.214 3.232-0.673 7.849h-10.18l1.455-15.685 20.612-5.853 20.612 5.853 2.837 30.781h-36.742l0.468 10.264h25.503l0.375-5.875h10.271z" fill="#fff"/></g><g transform="translate(58.98 53.078)"><path d="m0 0h-10.18l1.454-15.685 20.613-5.84v10.444l-11.214 3.232zm11.887 35.54h-19.679l-2.833-30.66 0.061 0.192h22.451v10.024h-11.876l0.468 10.264h11.408z" fill="#ebebeb"/></g><g transform="translate(63.028 117.42)"><path d="m0 0h-7.163v-5.144h12.296v15.288h-5.133z" fill="#231f20"/></g><g clip-path="url(#clipPath36)"><g transform="translate(85.868 127.48)"><path d="m0 0h-12.494v-5.354c1.67-1.671 2.543-2.471 4.961-4.889-1.414 0-4.961-5e-3 -4.961-5e-3v-4.884h12.494v4.885l-4.99 4.893h4.99z" fill="#231f20"/></g></g></g></svg>
