<?xml version="1.0" encoding="UTF-8"?>
<!-- Generator: Adobe Illustrator 16.0.0, SVG Export Plug-In . SVG Version: 6.00 Build 0)  -->
<svg width="419.93px" height="419.93px" enable-background="new 0 0 419.931 419.931" version="1.1" viewBox="0 0 419.93 419.93" xml:space="preserve" xmlns="http://www.w3.org/2000/svg">
<g fill="#fae">
	<g fill="#fae">
		<g fill="#fae">
			<path d="m282.9 352.37c-2.176-1.324-4.072-3.099-5.579-5.25-0.696-0.992-1.284-2.041-1.771-3.125h-247.26v-243.72h335.62v159.14c7.165 0.647 13.177 5.353 15.701 11.797 2.235-1.225 4.726-1.982 7.344-2.213 1.771-0.154 3.53-0.044 5.236 0.293v-229.73c0-12.996-10.571-23.569-23.566-23.569h-345.05c-12.995 0-23.568 10.573-23.568 23.569v309.15c0 12.996 10.573 23.568 23.568 23.568h257.18c-2.007-4.064-2.483-8.652-1.302-13.066 0.681-2.539 1.859-4.855 3.45-6.842zm55.13-296.8c0-4.806 3.896-8.703 8.702-8.703h8.702c4.807 0 8.702 3.896 8.702 8.703v9.863c0 4.806-3.896 8.702-8.702 8.702h-8.702c-4.807 0-8.702-3.896-8.702-8.702v-9.863zm-40.465 0c0-4.806 3.896-8.703 8.702-8.703h8.703c4.807 0 8.702 3.896 8.702 8.703v9.863c0 4.806-3.896 8.702-8.702 8.702h-8.703c-4.806 0-8.702-3.896-8.702-8.702v-9.863zm-40.466 0c0-4.806 3.897-8.703 8.702-8.703h8.702c4.807 0 8.703 3.896 8.703 8.703v9.863c0 4.806-3.896 8.702-8.703 8.702h-8.702c-4.805 0-8.702-3.896-8.702-8.702v-9.863z"/>
			<path d="m419.88 335.77-2.615-14.83c-0.353-1.997-2.256-3.331-4.255-2.979l-13.188 2.324c-1.583-3.715-3.605-7.195-6.005-10.38l8.614-10.268c0.626-0.744 0.931-1.709 0.847-2.68-0.086-0.971-0.554-1.867-1.3-2.494l-11.534-9.68c-0.746-0.626-1.713-0.93-2.683-0.845-0.971 0.085-1.867 0.552-2.493 1.298l-8.606 10.26c-3.533-1.8-7.312-3.188-11.271-4.104v-13.392c0-2.028-1.645-3.674-3.673-3.674h-15.06c-2.027 0-3.673 1.646-3.673 3.674v13.392c-3.961 0.915-7.736 2.304-11.271 4.104l-8.608-10.259c-1.304-1.554-3.62-1.756-5.175-0.453l-11.535 9.679c-0.746 0.627-1.213 1.523-1.299 2.494-0.084 0.971 0.22 1.937 0.846 2.683l8.615 10.266c-2.396 3.184-4.422 6.666-6.005 10.38l-13.188-2.325c-1.994-0.351-3.901 0.982-4.255 2.979l-2.614 14.83c-0.169 0.959 0.05 1.945 0.607 2.744 0.561 0.799 1.41 1.342 2.37 1.511l13.198 2.326c0.215 4.089 0.927 8.045 2.073 11.812l-11.6 6.695c-0.844 0.485-1.459 1.289-1.712 2.229-0.252 0.941-0.119 1.943 0.367 2.787l7.529 13.041c0.485 0.844 1.289 1.459 2.229 1.711 0.313 0.084 0.632 0.125 0.951 0.125 0.639 0 1.272-0.166 1.836-0.492l11.609-6.703c2.73 2.925 5.812 5.517 9.18 7.709l-4.584 12.593c-0.332 0.916-0.289 1.926 0.123 2.809s1.157 1.566 2.072 1.898l14.148 5.149c0.406 0.148 0.832 0.224 1.257 0.224 0.53 0 1.063-0.115 1.554-0.345 0.883-0.411 1.564-1.157 1.897-2.073l4.583-12.593c1.965 0.238 3.965 0.361 5.994 0.361s4.029-0.125 5.994-0.361l4.584 12.593c0.332 0.916 1.016 1.662 1.897 2.073 0.49 0.229 1.021 0.345 1.554 0.345 0.424 0 0.85-0.074 1.256-0.224l14.15-5.149c0.913-0.332 1.659-1.017 2.07-1.898 0.412-0.883 0.456-1.893 0.123-2.809l-4.584-12.591c3.365-2.192 6.447-4.786 9.18-7.709l11.609 6.703c0.563 0.324 1.197 0.492 1.836 0.492 0.318 0 0.64-0.043 0.951-0.125 0.941-0.252 1.743-0.869 2.229-1.711l7.529-13.043c0.486-0.842 0.619-1.846 0.367-2.787-0.253-0.938-0.868-1.742-1.712-2.229l-11.598-6.693c1.146-3.768 1.856-7.724 2.071-11.812l13.198-2.327c0.96-0.169 1.812-0.712 2.37-1.511 0.579-0.8 0.798-1.786 0.629-2.745zm-65.691 23.566c-11.155 0-20.2-9.045-20.2-20.201s9.046-20.2 20.2-20.2c11.156 0 20.201 9.044 20.201 20.2s-9.045 20.201-20.201 20.201z"/>
			
				<path d="m164.7 235.37c0-4.752-2.785-9.117-7.096-11.119l-39.455-18.332 39.456-18.334c4.31-2.004 7.095-6.368 7.095-11.118v-0.319c0-4.21-2.119-8.075-5.665-10.334-1.962-1.253-4.247-1.916-6.606-1.916-1.778 0-3.563 0.391-5.16 1.133l-63.078 29.333c-4.309 2.004-7.092 6.368-7.092 11.117v0.877c0 4.743 2.782 9.104 7.093 11.118l63.084 29.336c1.631 0.755 3.368 1.138 5.162 1.138 2.338 0 4.616-0.664 6.597-1.924 3.548-2.268 5.666-6.13 5.666-10.335l-1e-3 -0.321z"/>
				<path d="m226.93 134.01c-2.301-3.15-6.002-5.03-9.901-5.03h-0.314c-5.354 0-10.048 3.425-11.679 8.516l-41.56 128.77c-1.183 3.718-0.517 7.813 1.781 10.962 2.301 3.148 6.002 5.029 9.901 5.029h0.315c5.352 0 10.043-3.426 11.672-8.516l41.555-128.76c1.194-3.715 0.532-7.816-1.77-10.971z"/>
				<path d="m308 194.37-63.079-29.333c-1.592-0.74-3.374-1.131-5.152-1.131-2.358 0-4.644 0.661-6.605 1.912-3.552 2.263-5.671 6.127-5.671 10.337v0.319c0 4.746 2.783 9.111 7.097 11.123l39.454 18.33-39.455 18.331c-4.311 2.002-7.096 6.367-7.096 11.119v0.321c0 4.205 2.119 8.066 5.669 10.336 1.974 1.258 4.254 1.923 6.595 1.923 1.792 0 3.527-0.383 5.169-1.141l63.082-29.336c4.307-2.009 7.088-6.371 7.088-11.114v-0.877c-3e-3 -4.75-2.786-9.114-7.096-11.119z"/>
			
		</g>
	</g>
</g>















</svg>
